<?xml version="1.0" encoding="utf-8"?>
<!-- Generator: Adobe Illustrator 15.0.0, SVG Export Plug-In . SVG Version: 6.00 Build 0)  -->
<!DOCTYPE svg PUBLIC "-//W3C//DTD SVG 1.1//EN" "http://www.w3.org/Graphics/SVG/1.1/DTD/svg11.dtd">
<svg version="1.1" id="Livello_1" xmlns="http://www.w3.org/2000/svg" xmlns:xlink="http://www.w3.org/1999/xlink" x="0px" y="0px"
	 width="208.549px" height="197px" viewBox="64.14 52.445 208.549 197" enable-background="new 64.14 52.445 208.549 197"
	 xml:space="preserve">
<g id="D01_1_">
	<g>
		
			<rect x="246.234" y="117.323" fill="#D2D3D3" stroke="#010101" stroke-width="0.25" stroke-miterlimit="10" width="21.563" height="34.455"/>
		
			<rect x="226.667" y="104.921" fill="#A7A8AC" stroke="#010101" stroke-width="0.25" stroke-miterlimit="10" width="1.957" height="59.338"/>
		
			<rect x="228.625" y="117.323" fill="#A7A8AC" stroke="#010101" stroke-width="0.25" stroke-miterlimit="10" width="3.918" height="32.539"/>
		
			<rect x="234.501" y="123.062" fill="#D2D3D3" stroke="#010101" stroke-width="0.25" stroke-miterlimit="10" width="4.855" height="23.143"/>
		
			<rect x="254.085" y="151.778" fill="#D2D3D3" stroke="#010101" stroke-width="0.25" stroke-miterlimit="10" width="4.857" height="17.227"/>
		
			<rect x="225.648" y="169.005" fill="#D2D3D3" stroke="#010101" stroke-width="0.18" stroke-miterlimit="10" width="33.295" height="3.83"/>
		
			<rect x="223.972" y="88.61" fill="#6E6F71" stroke="#010101" stroke-width="0.25" stroke-miterlimit="10" width="2.979" height="90.961"/>
		
			<rect x="231.523" y="89.608" fill="#BDBEBF" stroke="#010101" stroke-width="0.25" stroke-miterlimit="10" width="2.979" height="79.396"/>
		
			<line fill="none" stroke="#010101" stroke-width="0.5" stroke-miterlimit="10" x1="272.689" y1="123.003" x2="236.556" y2="123.003"/>
		
			<line fill="none" stroke="#010101" stroke-width="0.5" stroke-miterlimit="10" x1="272.689" y1="146.272" x2="236.839" y2="146.272"/>
		
			<line fill="none" stroke="#010101" stroke-width="0.5" stroke-miterlimit="10" x1="236.689" y1="115.571" x2="236.689" y2="152.571"/>
	</g>
	
		<linearGradient id="SVGID_1_" gradientUnits="userSpaceOnUse" x1="169.1265" y1="642.5337" x2="169.1265" y2="769.5337" gradientTransform="matrix(1 0 0 -1 0.04 841.1045)">
		<stop  offset="0" style="stop-color:#E7E7E7"/>
		<stop  offset="0.497" style="stop-color:#808184"/>
		<stop  offset="1" style="stop-color:#E7E7E7"/>
	</linearGradient>
	
		<rect x="115.644" y="71.571" fill="url(#SVGID_1_)" stroke="#010101" stroke-width="0.25" stroke-linecap="round" stroke-linejoin="round" stroke-miterlimit="10" width="107.045" height="127"/>
	<g>
		
			<line fill="none" stroke="#010101" stroke-width="0.5" stroke-linecap="round" stroke-linejoin="round" stroke-miterlimit="10" x1="119.644" y1="70.287" x2="119.644" y2="200.288"/>
		
			<line fill="none" stroke="#010101" stroke-width="0.5" stroke-linecap="round" stroke-linejoin="round" stroke-miterlimit="10" x1="142.644" y1="70.287" x2="142.644" y2="200.288"/>
		
			<line fill="none" stroke="#010101" stroke-width="0.5" stroke-linecap="round" stroke-linejoin="round" stroke-miterlimit="10" x1="218.689" y1="70.287" x2="218.689" y2="200.288"/>
		
			<line fill="none" stroke="#010101" stroke-width="0.5" stroke-linecap="round" stroke-linejoin="round" stroke-miterlimit="10" x1="195.689" y1="70.287" x2="195.689" y2="200.288"/>
	</g>
	<g display="none">
		
			<rect x="138.644" y="198.7" display="inline" fill="#D1D2D3" stroke="#241F20" stroke-width="0.25" stroke-linecap="square" stroke-miterlimit="10" width="59.373" height="7.049"/>
		
			<rect x="140.622" y="194.647" display="inline" fill="#D2D3D3" stroke="#241F20" stroke-width="0.25" stroke-linecap="square" stroke-miterlimit="10" width="57.417" height="4.053"/>
		
			<rect x="198.017" y="191.571" display="inline" fill="#D2D3D3" stroke="#241F20" stroke-width="0.25" stroke-linecap="square" stroke-miterlimit="10" width="3.006" height="13.203"/>
		
			<rect x="193.113" y="205.911" display="inline" fill="#D2D3D3" stroke="#241F20" stroke-width="0.25" stroke-linecap="square" stroke-miterlimit="10" width="3.955" height="3.805"/>
		
			<rect x="139.673" y="205.749" display="inline" fill="#D2D3D3" stroke="#241F20" stroke-width="0.25" stroke-linecap="square" stroke-miterlimit="10" width="3.927" height="4.049"/>
		
			<rect x="159.661" y="205.571" display="inline" fill="#D2D3D3" stroke="#241F20" stroke-width="0.25" stroke-linecap="square" stroke-miterlimit="10" width="20.028" height="3"/>
	</g>
	
		<rect x="147.533" y="68.571" display="none" fill="#D2D3D3" stroke="#241F20" stroke-width="0.18" stroke-linecap="square" stroke-miterlimit="10" width="42.156" height="3.828"/>
	<g>
		<polyline fill="#010101" points="103.551,176.595 103.551,244.538 101.563,244.538 101.563,176.595 		"/>
		<polyline fill="#010101" points="236.736,174.722 236.736,244.538 234.748,244.538 234.748,174.722 		"/>
		<rect x="113.486" y="234.688" fill="#818385" width="7.949" height="1.971"/>
		<rect x="135.345" y="234.688" fill="#818385" width="7.949" height="1.971"/>
		<rect x="157.218" y="234.688" fill="#818385" width="7.962" height="1.971"/>
		<rect x="179.109" y="234.688" fill="#818385" width="7.947" height="1.971"/>
		<rect x="200.966" y="234.688" fill="#818385" width="7.949" height="1.971"/>
		<rect x="222.826" y="234.688" fill="#818385" width="7.949" height="1.971"/>
		<rect x="183.082" y="240.601" fill="#6E6E72" width="7.949" height="1.971"/>
		<rect x="148.222" y="240.601" fill="#6E6E72" width="7.959" height="1.971"/>
		
			<rect x="101.563" y="236.659" fill="#BDBEBF" stroke="#010101" stroke-width="0.18" stroke-miterlimit="10" width="136.125" height="3.074"/>
		<line fill="none" stroke="#231F20" stroke-miterlimit="10" x1="105.644" y1="190.722" x2="105.644" y2="236.722"/>
		<line fill="none" stroke="#231F20" stroke-miterlimit="10" x1="232.689" y1="190.571" x2="232.689" y2="236.571"/>
	</g>
	<g>
		
			<rect x="95.75" y="128.884" fill="#BDBEBF" stroke="#010101" stroke-width="0.25" stroke-miterlimit="10" width="2.604" height="14.318"/>
		
			<rect x="98.331" y="125.515" fill="#BDBEBF" stroke="#010101" stroke-width="0.25" stroke-miterlimit="10" width="8.575" height="21.057"/>
		
			<rect x="90.007" y="131.258" fill="#A7A8AC" stroke="#010101" stroke-width="0.25" stroke-miterlimit="10" width="5.742" height="9.571"/>
		
			<rect x="80.437" y="132.676" fill="#929497" stroke="#010101" stroke-width="0.25" stroke-miterlimit="10" width="9.571" height="6.659"/>
		
			<rect x="71.861" y="134.091" fill="#6E6F71" stroke="#010101" stroke-width="0.25" stroke-miterlimit="10" width="8.575" height="3.828"/>
		
			<rect x="79.189" y="148.944" fill="#2A3B8F" stroke="#010101" stroke-width="0.25" stroke-miterlimit="10" width="27.717" height="21.055"/>
		
			<rect x="71.533" y="147.526" fill="#818385" stroke="#010101" stroke-width="0.25" stroke-miterlimit="10" width="8.575" height="23.89"/>
		
			<rect x="97.335" y="150.856" fill="#D2D3D3" stroke="#010101" stroke-width="0.25" stroke-miterlimit="10" width="7.656" height="17.23"/>
		
			<rect x="106.906" y="92.515" fill="#BE202E" stroke="#010101" stroke-width="0.25" stroke-miterlimit="10" width="6.738" height="87.057"/>
	</g>
	<g>
		
			<rect x="136.644" y="60.571" fill="none" stroke="#010101" stroke-width="0.25" stroke-miterlimit="10" width="65.045" height="4"/>
		
			<line fill="none" stroke="#010101" stroke-width="0.25" stroke-miterlimit="10" x1="136.644" y1="62.571" x2="201.689" y2="62.571"/>
	</g>
	<g>
		
			<line fill="none" stroke="#010101" stroke-width="0.25" stroke-miterlimit="10" x1="106.928" y1="176.571" x2="77.644" y2="176.571"/>
		
			<line fill="none" stroke="#010101" stroke-width="0.25" stroke-miterlimit="10" x1="77.644" y1="176.692" x2="77.644" y2="171.438"/>
	</g>
	<g>
		
			<line fill="none" stroke="#010101" stroke-width="0.25" stroke-miterlimit="10" x1="226.539" y1="174.571" x2="245.689" y2="174.571"/>
		
			<line fill="none" stroke="#010101" stroke-width="0.25" stroke-miterlimit="10" x1="245.689" y1="174.571" x2="245.689" y2="172.854"/>
	</g>
	<g>
		<rect x="83.644" y="57.571" fill="#6E6F71" stroke="#231F20" stroke-width="0.25" stroke-miterlimit="10" width="7" height="5"/>
		<polyline fill="#010101" points="86.644,57.571 86.644,105.571 84.656,105.571 84.656,57.571 		"/>
		<rect x="90.644" y="67.571" fill="#BBBDBF" stroke="#231F20" stroke-width="0.25" stroke-miterlimit="10" width="6" height="38"/>
		
			<rect x="86.644" y="64.571" fill="#BBBDBF" stroke="#231F20" stroke-width="0.25" stroke-miterlimit="10" width="14" height="12"/>
		
			<rect x="84.644" y="104.571" fill="#BBBDBF" stroke="#231F20" stroke-width="0.25" stroke-miterlimit="10" width="18" height="15"/>
		
			<rect x="79.928" y="117.571" fill="#A6A8AC" stroke="#231F20" stroke-width="0.25" stroke-miterlimit="10" width="27" height="4"/>
		
			<rect x="79.644" y="117.571" fill="#A6A8AC" stroke="#231F20" stroke-width="0.25" stroke-miterlimit="10" width="4" height="31.283"/>
		
			<ellipse fill="#6E6F71" stroke="#231F20" stroke-width="0.25" stroke-miterlimit="10" cx="94.144" cy="111.071" rx="4.5" ry="3.5"/>
	</g>
	<g id="_x30_1_2_" display="none">
		<g display="inline">
			
				<rect x="113.644" y="85.61" fill="#BBBDBF" stroke="#020303" stroke-width="0.2835" stroke-linecap="round" stroke-linejoin="round" stroke-miterlimit="10" width="2" height="6"/>
			
				<rect x="113.644" y="178.608" fill="#BBBDBF" stroke="#020303" stroke-width="0.2835" stroke-linecap="round" stroke-linejoin="round" stroke-miterlimit="10" width="2" height="6"/>
			
				<rect x="222.689" y="178.608" fill="#BBBDBF" stroke="#020303" stroke-width="0.2835" stroke-linecap="round" stroke-linejoin="round" stroke-miterlimit="10" width="2.002" height="6"/>
			
				<rect x="222.689" y="85.61" fill="#BBBDBF" stroke="#020303" stroke-width="0.2835" stroke-linecap="round" stroke-linejoin="round" stroke-miterlimit="10" width="2" height="6"/>
		</g>
		<g display="inline">
			
				<rect x="113.608" y="84.612" fill="#BBBDBF" stroke="#020303" stroke-width="0.2835" stroke-linecap="round" stroke-linejoin="round" stroke-miterlimit="10" width="111.05" height="8"/>
			<path fill="#231F1F" d="M133.608,88.112c0,0.83,1.12,1.5,2.5,1.5s2.5-0.67,2.5-1.5c0-0.82-1.12-1.5-2.5-1.5
				S133.608,87.292,133.608,88.112z"/>
			<path fill="#231F1F" d="M166.136,88.112c0,0.83,1.122,1.5,2.504,1.5c1.382,0,2.504-0.67,2.504-1.5c0-0.82-1.122-1.5-2.504-1.5
				C167.258,86.612,166.136,87.292,166.136,88.112z"/>
			<path fill="#231F1F" d="M198.658,88.112c0,0.83,1.119,1.5,2.5,1.5c1.379,0,2.5-0.67,2.5-1.5c0-0.82-1.121-1.5-2.5-1.5
				C199.777,86.612,198.658,87.292,198.658,88.112z"/>
			<rect x="113.473" y="86.612" fill="#231F1F" width="13" height="2"/>
			<rect x="211.658" y="86.612" fill="#231F1F" width="13" height="2"/>
		</g>
		<g display="inline">
			
				<rect x="113.608" y="177.603" fill="#BBBDBF" stroke="#020303" stroke-width="0.2835" stroke-linecap="round" stroke-linejoin="round" stroke-miterlimit="10" width="111.05" height="8"/>
			<path fill="#231F1F" d="M133.608,182.103c0-0.819,1.12-1.5,2.5-1.5s2.5,0.681,2.5,1.5c0,0.83-1.12,1.5-2.5,1.5
				S133.608,182.933,133.608,182.103z"/>
			<path fill="#231F1F" d="M166.136,182.103c0-0.819,1.122-1.5,2.504-1.5c1.382,0,2.504,0.681,2.504,1.5c0,0.83-1.122,1.5-2.504,1.5
				C167.258,183.603,166.136,182.933,166.136,182.103z"/>
			<path fill="#231F1F" d="M198.658,182.103c0-0.819,1.119-1.5,2.5-1.5c1.379,0,2.5,0.681,2.5,1.5c0,0.83-1.121,1.5-2.5,1.5
				C199.777,183.603,198.658,182.933,198.658,182.103z"/>
			<rect x="113.473" y="182.603" fill="#231F1F" width="13" height="2"/>
			<rect x="211.658" y="182.603" fill="#231F1F" width="13" height="2"/>
		</g>
	</g>
</g>
</svg>
