<?xml version="1.0"?>
<svg xmlns="http://www.w3.org/2000/svg" id="Layer_1" data-name="Layer 1" viewBox="0 0 512 512" width="512" height="512"><title>lab 01</title><path d="M127.08,371.29l51.19-88.75.73.42H333l.76-.44,93.78,162.36c13.49,23.14,2.84,42.85-23.87,42.85h-295c-26.71,0-37.53-19.71-24.04-42.85Z" style="fill:#f8ec7d"/><path d="M341.61,46.08c0,11.39-10.38,20.07-23.06,20.07H305V232.72l28.76,49.8-.76.44H179l-.73-.42L207,232.72V66.15H193.19c-12.35,0-22.46-8.68-22.46-20.07S181.66,26,195.01,26H317.33C330.69,26,341.61,34.68,341.61,46.08Z" style="fill:#e48e66"/><path d="M108.67,495h295c15.31,0,27-5.8,32.9-16.085,5.941-10.338,4.852-24.047-2.972-37.469L312,230.844V73h6.55c16.856,0,30.06-11.816,30.06-26.995S334.87,19,317.33,19H195.01c-17.54,0-31.28,11.82-31.28,27.005S176.67,73,193.19,73H200V230.846L121.355,367.2a6.938,6.938,0,0,0-.687,1.189L78.583,441.355c-7.812,13.4-8.884,27.147-2.943,37.487C81.49,489.025,93.529,495,108.67,495ZM213.064,236.237A7.074,7.074,0,0,0,214,232.72V66.15A7.13,7.13,0,0,0,207,59H193.19c-8.669,0-15.46-5.666-15.46-12.995,0-7.212,7.751-13.005,17.28-13.005H317.33c9.69,0,17.28,5.671,17.28,13.005S327.556,59,318.55,59H305a7.13,7.13,0,0,0-7,7.15V232.72a7.071,7.071,0,0,0,.939,3.521L321.891,276H190.146ZM90.693,448.148,105.643,422H131a7,7,0,0,0,0-14H113.718l17.4-30H156a7,7,0,0,0,0-14H139.2l17.4-30H182a7,7,0,0,0,0-14H164.668l17.4-30H329.977l91.516,158.425c5.245,9,6.318,17.652,2.943,23.526C421.129,477.706,413.754,481,403.67,481h-295c-10.138,0-17.558-3.445-20.891-9.248C84.4,465.877,85.46,457.126,90.693,448.148Z" style="fill:#63316d"/></svg>
